<svg viewBox="0 0 200 200" xmlns="http://www.w3.org/2000/svg">
  <!-- Background Circle -->
  <circle cx="100" cy="100" r="95" fill="#2563eb" stroke="#1e40af" stroke-width="4"/>
  
  <!-- Main Door Structure -->
  <g transform="translate(100, 100)">
    <!-- Left Door -->
    <rect x="-50" y="-40" width="40" height="80" rx="3" fill="#ffffff" stroke="#e5e7eb" stroke-width="2"/>
    <!-- Left Door Handle -->
    <circle cx="-20" cy="8" r="3" fill="#6b7280"/>
    <!-- Left Door Panel Lines -->
    <line x1="-45" y1="-25" x2="-15" y2="-25" stroke="#e5e7eb" stroke-width="2"/>
    <line x1="-45" y1="0" x2="-15" y2="0" stroke="#e5e7eb" stroke-width="2"/>
    <line x1="-45" y1="25" x2="-15" y2="25" stroke="#e5e7eb" stroke-width="2"/>
    
    <!-- Right Door -->
    <rect x="10" y="-40" width="40" height="80" rx="3" fill="#ffffff" stroke="#e5e7eb" stroke-width="2"/>
    <!-- Right Door Handle -->
    <circle cx="40" cy="8" r="3" fill="#6b7280"/>
    <!-- Right Door Panel Lines -->
    <line x1="15" y1="-25" x2="45" y2="-25" stroke="#e5e7eb" stroke-width="2"/>
    <line x1="15" y1="0" x2="45" y2="0" stroke="#e5e7eb" stroke-width="2"/>
    <line x1="15" y1="25" x2="45" y2="25" stroke="#e5e7eb" stroke-width="2"/>
    
    <!-- Door Frame -->
    <rect x="-55" y="-45" width="110" height="90" rx="6" fill="none" stroke="#ffffff" stroke-width="3"/>
    
    <!-- Inspection Symbol -->
    <g transform="translate(0, 55)">
      <!-- Magnifying Glass -->
      <circle cx="0" cy="0" r="10" fill="none" stroke="#ffffff" stroke-width="3"/>
      <line x1="7" y1="7" x2="15" y2="15" stroke="#ffffff" stroke-width="3" stroke-linecap="round"/>
      <!-- Checkmark inside -->
      <path d="M-4,0 L-1,3 L4,-3" stroke="#ffffff" stroke-width="3" fill="none" stroke-linecap="round" stroke-linejoin="round"/>
    </g>
  </g>
</svg>
